<svg xmlns="http://www.w3.org/2000/svg" width="1200" height="360" viewBox="0 0 1200 360" preserveAspectRatio="xMidYMid slice">
  <defs>
    <linearGradient id="g" x1="0" y1="0" x2="1" y2="0">
      <stop offset="0" stop-color="#7CB6FF"/>
      <stop offset="0.55" stop-color="#C9D4FF"/>
      <stop offset="1" stop-color="#FFD1E8"/>
    </linearGradient>
    <radialGradient id="glowA" cx="30%" cy="35%" r="60%">
      <stop offset="0" stop-color="#FFFFFF" stop-opacity="0.65"/>
      <stop offset="0.55" stop-color="#FFFFFF" stop-opacity="0.10"/>
      <stop offset="1" stop-color="#FFFFFF" stop-opacity="0"/>
    </radialGradient>
    <radialGradient id="glowB" cx="78%" cy="28%" r="65%">
      <stop offset="0" stop-color="#FFFFFF" stop-opacity="0.40"/>
      <stop offset="0.6" stop-color="#FFFFFF" stop-opacity="0.06"/>
      <stop offset="1" stop-color="#FFFFFF" stop-opacity="0"/>
    </radialGradient>
    <filter id="blur" x="-20%" y="-20%" width="140%" height="140%">
      <feGaussianBlur stdDeviation="14"/>
    </filter>
  </defs>

  <rect width="1200" height="360" fill="url(#g)"/>

  <path d="M -40 280 C 220 180, 520 210, 820 160 C 980 132, 1110 120, 1260 140" fill="none" stroke="#FFFFFF" stroke-opacity="0.18" stroke-width="3"/>
  <path d="M -60 310 C 220 230, 520 252, 820 208 C 1020 180, 1140 176, 1280 186" fill="none" stroke="#FFFFFF" stroke-opacity="0.10" stroke-width="2"/>

  <circle cx="320" cy="120" r="180" fill="url(#glowA)" filter="url(#blur)"/>
  <circle cx="900" cy="90" r="200" fill="url(#glowB)" filter="url(#blur)"/>

  <g fill="#FFFFFF" opacity="0.75">
    <circle cx="86" cy="74" r="1.4"/>
    <circle cx="124" cy="132" r="1.1"/>
    <circle cx="182" cy="66" r="1.2"/>
    <circle cx="210" cy="156" r="1.0"/>
    <circle cx="268" cy="110" r="1.2"/>
    <circle cx="312" cy="74" r="1.0"/>
    <circle cx="356" cy="148" r="1.3"/>
    <circle cx="418" cy="98" r="1.1"/>
    <circle cx="472" cy="66" r="1.4"/>
    <circle cx="512" cy="128" r="1.0"/>
    <circle cx="562" cy="90" r="1.2"/>
    <circle cx="612" cy="56" r="1.0"/>
    <circle cx="652" cy="120" r="1.4"/>
    <circle cx="702" cy="92" r="1.1"/>
    <circle cx="742" cy="60" r="1.2"/>
    <circle cx="786" cy="138" r="1.0"/>
    <circle cx="826" cy="86" r="1.3"/>
    <circle cx="872" cy="54" r="1.1"/>
    <circle cx="922" cy="132" r="1.4"/>
    <circle cx="972" cy="92" r="1.0"/>
    <circle cx="1016" cy="58" r="1.2"/>
    <circle cx="1062" cy="110" r="1.3"/>
    <circle cx="1112" cy="72" r="1.1"/>
  </g>

  <g fill="#FFFFFF" opacity="0.28">
    <circle cx="160" cy="210" r="2.4"/>
    <circle cx="520" cy="240" r="2.0"/>
    <circle cx="880" cy="220" r="2.2"/>
    <circle cx="1040" cy="250" r="1.8"/>
  </g>
</svg>
