<svg t="1773308797501" class="icon" viewBox="0 0 1024 1024" version="1.1" xmlns="http://www.w3.org/2000/svg" p-id="10936" width="200" height="200"><rect x="80" y="80" width="864" height="864" rx="200" fill="#ECE9FF"/><path d="M282.937169 255.806207m74.416351 0l310.06813 0q74.416351 0 74.416352 74.416352l0 362.779712q0 74.416351-74.416352 74.416351l-310.06813 0q-74.416351 0-74.416351-74.416351l0-362.779712q0-74.416351 74.416351-74.416352Z" fill="#4F3ED8" p-id="10942"></path><path d="M341.074943 351.152157m21.317184 0l175.963664 0q21.317184 0 21.317184 21.317184l0 0q0 21.317184-21.317184 21.317184l-175.963664 0q-21.317184 0-21.317184-21.317184l0 0q0-21.317184 21.317184-21.317184Z" fill="#7564FE" p-id="10943"></path><path d="M341.074943 438.746404m21.317184 0l300.766086 0q21.317184 0 21.317184 21.317184l0 0q0 21.317184-21.317184 21.317184l-300.766086 0q-21.317184 0-21.317184-21.317184l0 0q0-21.317184 21.317184-21.317184Z" fill="#7564FE" p-id="10944"></path><path d="M341.074943 526.340651m21.317184 0l300.766086 0q21.317184 0 21.317184 21.317184l0 0q0 21.317184-21.317184 21.317184l-300.766086 0q-21.317184 0-21.317184-21.317184l0 0q0-21.317184 21.317184-21.317184Z" fill="#7564FE" p-id="10945"></path><path d="M684.475397 631.763815m0 10.077215l0 0q0 10.077214-10.077214 10.077214l-58.137774 0q-10.077214 0-10.077214-10.077214l0 0q0-10.077214 10.077214-10.077215l58.137774 0q10.077214 0 10.077214 10.077215Z" fill="#7564FE" p-id="10946"></path><path d="M684.475397 661.220288m0 10.077214l0 0q0 10.077214-10.077214 10.077214l-58.137774 0q-10.077214 0-10.077214-10.077214l0 0q0-10.077214 10.077214-10.077214l58.137774 0q10.077214 0 10.077214 10.077214Z" fill="#7564FE" p-id="10947"></path><path d="M684.475397 690.67676m0 10.077214l0 0q0 10.077214-10.077214 10.077214l-58.137774 0q-10.077214 0-10.077214-10.077214l0 0q0-10.077214 10.077214-10.077214l58.137774 0q10.077214 0 10.077214 10.077214Z" fill="#7564FE" p-id="10948"></path></svg>
