<svg t="1773309201915" class="icon" viewBox="0 0 1024 1024" version="1.1" xmlns="http://www.w3.org/2000/svg" p-id="16777" width="200" height="200"><rect x="80" y="80" width="864" height="864" rx="200" fill="#FFF0E6"/><path d="M304.641938 257.356548m69.765329 0l275.185466 0q69.765329 0 69.765329 69.765329l0 369.756246q0 69.765329-69.765329 69.765329l-275.185466 0q-69.765329 0-69.765329-69.765329l0-369.756246q0-69.765329 69.765329-69.765329Z" fill="#D96F25" p-id="16783"></path><path d="M365.105223 341.074943m21.317184 0l153.483725 0q21.317184 0 21.317184 21.317184l0 0q0 21.317184-21.317184 21.317184l-153.483725 0q-21.317184 0-21.317184-21.317184l0 0q0-21.317184 21.317184-21.317184Z" fill="#FF954B" p-id="16784"></path><path d="M365.105223 437.971234m21.317184 0l250.380015 0q21.317184 0 21.317184 21.317184l0 0q0 21.317184-21.317184 21.317184l-250.380015 0q-21.317184 0-21.317184-21.317184l0 0q0-21.317184 21.317184-21.317184Z" fill="#FF954B" p-id="16785"></path><path d="M365.105223 534.867525m21.317184 0l250.380015 0q21.317184 0 21.317184 21.317184l0 0q0 21.317184-21.317184 21.317184l-250.380015 0q-21.317184 0-21.317184-21.317184l0 0q0-21.317184 21.317184-21.317184Z" fill="#FF954B" p-id="16786"></path><path d="M365.880394 631.763815m21.317184 0l250.380015 0q21.317184 0 21.317184 21.317184l0 0q0 21.317184-21.317184 21.317184l-250.380015 0q-21.317184 0-21.317184-21.317184l0 0q0-21.317184 21.317184-21.317184Z" fill="#FF954B" p-id="16787"></path></svg>
